<?xml version="1.0" standalone="no"?><!-- Generator: Gravit.io --><svg xmlns="http://www.w3.org/2000/svg" xmlns:xlink="http://www.w3.org/1999/xlink" style="isolation:isolate" viewBox="0 0 241.396 52.46" width="241.396" height="52.46"><defs><clipPath id="_clipPath_HkThljmzH5tOnj5a3EQa7X4m4b1HBMb4"><rect width="241.396" height="52.46"/></clipPath></defs><g clip-path="url(#_clipPath_HkThljmzH5tOnj5a3EQa7X4m4b1HBMb4)"><clipPath id="_clipPath_ieArdXdSvnddq5RMAgnJ7Ro0tYrTHskI"><path d=" M 0 0 L 0 52.46 L 241.396 52.46 L 241.396 0 L 0 0 Z " fill="rgb(255,255,255)"/></clipPath><g clip-path="url(#_clipPath_ieArdXdSvnddq5RMAgnJ7Ro0tYrTHskI)"><path d=" M 90.13 1.043 L 88.002 1.1 C 87.174 1.128 86.832 1.2 86.618 1.514 C 86.475 1.728 86.403 1.899 86.375 2.014 C 86.347 2.128 86.304 2.185 86.218 2.185 C 86.118 2.185 86.09 2.114 86.09 1.957 C 86.09 1.728 86.361 0.429 86.389 0.314 C 86.432 0.129 86.475 0.043 86.561 0.043 C 86.675 0.043 86.818 0.186 87.174 0.214 C 87.589 0.257 88.132 0.286 88.603 0.286 L 94.257 0.286 C 94.714 0.286 95.028 0.243 95.243 0.214 C 95.457 0.172 95.571 0.143 95.628 0.143 C 95.727 0.143 95.742 0.228 95.742 0.443 C 95.742 0.743 95.7 1.728 95.7 2.099 C 95.685 2.242 95.657 2.328 95.571 2.328 C 95.457 2.328 95.429 2.256 95.413 2.042 L 95.399 1.885 C 95.371 1.514 94.986 1.114 93.714 1.086 L 91.915 1.043 L 91.915 6.897 C 91.915 8.21 91.915 9.338 91.986 9.953 C 92.03 10.352 92.115 10.667 92.543 10.723 C 92.743 10.752 93.058 10.781 93.272 10.781 C 93.429 10.781 93.501 10.823 93.501 10.895 C 93.501 10.995 93.387 11.038 93.229 11.038 C 92.286 11.038 91.387 10.995 90.988 10.995 C 90.659 10.995 89.759 11.038 89.188 11.038 C 89.002 11.038 88.902 10.995 88.902 10.895 C 88.902 10.823 88.96 10.781 89.131 10.781 C 89.345 10.781 89.516 10.752 89.645 10.723 C 89.93 10.667 90.016 10.352 90.058 9.937 C 90.13 9.338 90.13 8.21 90.13 6.897 L 90.13 1.043 Z " fill="rgb(133,137,138)"/></g><clipPath id="_clipPath_RihLDfbmld7e7ZDiftwh4fZ7mU8ZHsHW"><path d=" M 0 0 L 0 52.46 L 241.396 52.46 L 241.396 0 L 0 0 Z " fill="rgb(255,255,255)"/></clipPath><g clip-path="url(#_clipPath_RihLDfbmld7e7ZDiftwh4fZ7mU8ZHsHW)"><path d=" M 105.413 4.784 C 105.455 4.784 105.498 4.755 105.498 4.684 L 105.498 4.384 C 105.498 2.213 105.498 1.813 105.47 1.356 C 105.441 0.872 105.327 0.643 104.856 0.543 C 104.742 0.515 104.499 0.5 104.299 0.5 C 104.142 0.5 104.056 0.472 104.056 0.372 C 104.056 0.271 104.157 0.243 104.356 0.243 C 105.127 0.243 106.027 0.286 106.412 0.286 C 106.755 0.286 107.654 0.243 108.211 0.243 C 108.411 0.243 108.512 0.271 108.512 0.372 C 108.512 0.472 108.426 0.5 108.255 0.5 C 108.139 0.5 108.011 0.515 107.84 0.543 C 107.454 0.614 107.341 0.857 107.311 1.356 C 107.283 1.813 107.283 2.213 107.283 4.384 L 107.283 6.897 C 107.283 8.21 107.283 9.338 107.355 9.953 C 107.397 10.352 107.483 10.667 107.911 10.723 C 108.111 10.752 108.426 10.781 108.64 10.781 C 108.797 10.781 108.868 10.823 108.868 10.895 C 108.868 10.995 108.754 11.038 108.582 11.038 C 107.654 11.038 106.755 10.995 106.355 10.995 C 106.027 10.995 105.127 11.038 104.57 11.038 C 104.371 11.038 104.271 10.995 104.271 10.895 C 104.271 10.823 104.327 10.781 104.499 10.781 C 104.713 10.781 104.885 10.752 105.012 10.723 C 105.299 10.667 105.369 10.352 105.427 9.937 C 105.498 9.338 105.498 8.21 105.498 6.897 L 105.498 5.64 C 105.498 5.583 105.455 5.555 105.413 5.555 L 99.958 5.555 C 99.915 5.555 99.872 5.569 99.872 5.64 L 99.872 6.897 C 99.872 8.21 99.872 9.338 99.944 9.953 C 99.987 10.352 100.073 10.667 100.501 10.723 C 100.7 10.752 101.014 10.781 101.229 10.781 C 101.386 10.781 101.457 10.823 101.457 10.895 C 101.457 10.995 101.343 11.038 101.172 11.038 C 100.243 11.038 99.345 10.995 98.944 10.995 C 98.616 10.995 97.716 11.038 97.145 11.038 C 96.96 11.038 96.86 10.995 96.86 10.895 C 96.86 10.823 96.916 10.781 97.088 10.781 C 97.303 10.781 97.473 10.752 97.602 10.723 C 97.888 10.667 97.959 10.352 98.016 9.937 C 98.087 9.338 98.087 8.21 98.087 6.897 L 98.087 4.384 C 98.087 2.213 98.087 1.813 98.059 1.356 C 98.031 0.872 97.916 0.643 97.445 0.543 C 97.331 0.515 97.088 0.5 96.888 0.5 C 96.731 0.5 96.645 0.472 96.645 0.372 C 96.645 0.271 96.745 0.243 96.945 0.243 C 97.716 0.243 98.616 0.286 99.001 0.286 C 99.345 0.286 100.243 0.243 100.8 0.243 C 101 0.243 101.1 0.271 101.1 0.372 C 101.1 0.472 101.014 0.5 100.844 0.5 C 100.729 0.5 100.6 0.515 100.429 0.543 C 100.044 0.614 99.93 0.857 99.901 1.356 C 99.872 1.813 99.872 2.213 99.872 4.384 L 99.872 4.684 C 99.872 4.755 99.915 4.784 99.958 4.784 L 105.413 4.784 Z " fill="rgb(133,137,138)"/></g><clipPath id="_clipPath_0ZcZH1gZpqqfJeXBP0FkGmu4lAN6zgG5"><path d=" M 0 0 L 0 52.46 L 241.396 52.46 L 241.396 0 L 0 0 Z " fill="rgb(255,255,255)"/></clipPath><g clip-path="url(#_clipPath_0ZcZH1gZpqqfJeXBP0FkGmu4lAN6zgG5)"><path d=" M 110.972 4.384 C 110.972 2.213 110.972 1.813 110.944 1.356 C 110.915 0.872 110.801 0.643 110.33 0.543 C 110.216 0.515 109.973 0.5 109.773 0.5 C 109.616 0.5 109.531 0.472 109.531 0.372 C 109.531 0.271 109.631 0.243 109.845 0.243 C 110.23 0.243 110.644 0.257 111.001 0.257 C 111.372 0.271 111.701 0.286 111.901 0.286 C 112.358 0.286 115.2 0.286 115.47 0.271 C 115.741 0.243 115.97 0.214 116.084 0.186 C 116.156 0.172 116.242 0.129 116.313 0.129 C 116.385 0.129 116.399 0.186 116.399 0.257 C 116.399 0.357 116.327 0.529 116.284 1.186 C 116.27 1.328 116.242 1.957 116.213 2.128 C 116.199 2.199 116.17 2.285 116.07 2.285 C 115.97 2.285 115.942 2.213 115.942 2.085 C 115.942 1.985 115.928 1.742 115.856 1.571 C 115.756 1.314 115.613 1.143 114.899 1.057 C 114.657 1.028 113.158 1 112.871 1 C 112.8 1 112.771 1.043 112.771 1.143 L 112.771 4.755 C 112.771 4.855 112.785 4.912 112.871 4.912 C 113.186 4.912 114.827 4.912 115.156 4.884 C 115.499 4.855 115.713 4.812 115.842 4.669 C 115.942 4.555 115.998 4.484 116.07 4.484 C 116.128 4.484 116.17 4.513 116.17 4.598 C 116.17 4.684 116.098 4.912 116.056 5.64 C 116.028 5.926 115.998 6.497 115.998 6.597 C 115.998 6.711 115.998 6.869 115.87 6.869 C 115.77 6.869 115.741 6.812 115.741 6.74 C 115.727 6.597 115.727 6.412 115.685 6.226 C 115.613 5.94 115.413 5.726 114.885 5.669 C 114.613 5.64 113.2 5.626 112.857 5.626 C 112.785 5.626 112.771 5.683 112.771 5.769 L 112.771 6.897 C 112.771 7.382 112.757 8.696 112.771 9.11 C 112.8 10.095 113.028 10.31 114.485 10.31 C 114.856 10.31 115.456 10.31 115.827 10.138 C 116.199 9.967 116.37 9.667 116.47 9.082 C 116.498 8.925 116.527 8.867 116.627 8.867 C 116.741 8.867 116.741 8.981 116.741 9.124 C 116.741 9.453 116.627 10.424 116.555 10.709 C 116.455 11.08 116.327 11.08 115.785 11.08 C 114.713 11.08 113.928 11.052 113.314 11.038 C 112.7 11.009 112.258 10.995 111.829 10.995 C 111.673 10.995 111.358 11.009 111.015 11.009 C 110.687 11.023 110.316 11.038 110.03 11.038 C 109.845 11.038 109.745 10.995 109.745 10.895 C 109.745 10.823 109.802 10.781 109.973 10.781 C 110.187 10.781 110.358 10.752 110.487 10.723 C 110.773 10.667 110.844 10.352 110.901 9.937 C 110.972 9.338 110.972 8.21 110.972 6.897 L 110.972 4.384 Z " fill="rgb(133,137,138)"/></g><clipPath id="_clipPath_8lCDY9vmkjjOBGo23JXKMVNEl0S1Ybl8"><path d=" M 0 0 L 0 52.46 L 241.396 52.46 L 241.396 0 L 0 0 Z " fill="rgb(255,255,255)"/></clipPath><g clip-path="url(#_clipPath_8lCDY9vmkjjOBGo23JXKMVNEl0S1Ybl8)"><path d=" M 123.673 4.384 C 123.673 2.213 123.673 1.813 123.644 1.356 C 123.616 0.872 123.502 0.643 123.03 0.543 C 122.915 0.515 122.672 0.5 122.473 0.5 C 122.315 0.5 122.229 0.472 122.229 0.372 C 122.229 0.271 122.33 0.243 122.544 0.243 C 123.301 0.243 124.201 0.286 124.63 0.286 C 124.971 0.286 125.871 0.243 126.386 0.243 C 126.6 0.243 126.7 0.271 126.7 0.372 C 126.7 0.472 126.614 0.5 126.471 0.5 C 126.314 0.5 126.229 0.515 126.057 0.543 C 125.672 0.614 125.557 0.857 125.528 1.356 C 125.5 1.813 125.5 2.213 125.5 4.384 L 125.5 6.383 C 125.5 8.453 125.915 9.324 126.614 9.895 C 127.256 10.424 127.913 10.48 128.398 10.48 C 129.027 10.48 129.799 10.28 130.37 9.709 C 131.155 8.925 131.198 7.639 131.198 6.168 L 131.198 4.384 C 131.198 2.213 131.198 1.813 131.17 1.356 C 131.14 0.872 131.027 0.643 130.554 0.543 C 130.44 0.515 130.198 0.5 130.041 0.5 C 129.885 0.5 129.799 0.472 129.799 0.372 C 129.799 0.271 129.898 0.243 130.097 0.243 C 130.827 0.243 131.726 0.286 131.74 0.286 C 131.911 0.286 132.811 0.243 133.368 0.243 C 133.568 0.243 133.668 0.271 133.668 0.372 C 133.668 0.472 133.582 0.5 133.411 0.5 C 133.254 0.5 133.168 0.515 132.997 0.543 C 132.611 0.614 132.497 0.857 132.469 1.356 C 132.44 1.813 132.44 2.213 132.44 4.384 L 132.44 5.912 C 132.44 7.497 132.282 9.182 131.084 10.209 C 130.069 11.08 129.042 11.238 128.113 11.238 C 127.356 11.238 125.985 11.194 124.943 10.252 C 124.216 9.595 123.673 8.539 123.673 6.469 L 123.673 4.384 Z " fill="rgb(133,137,138)"/></g><clipPath id="_clipPath_KZZLZE6akYwFKo3WYGQ9C5GveG8ocS1I"><path d=" M 0 0 L 0 52.46 L 241.396 52.46 L 241.396 0 L 0 0 Z " fill="rgb(255,255,255)"/></clipPath><g clip-path="url(#_clipPath_KZZLZE6akYwFKo3WYGQ9C5GveG8ocS1I)"><path d=" M 136.116 9.096 C 136.144 10.209 136.329 10.581 136.615 10.681 C 136.857 10.767 137.129 10.781 137.357 10.781 C 137.514 10.781 137.599 10.809 137.599 10.895 C 137.599 11.009 137.471 11.038 137.272 11.038 C 136.345 11.038 135.772 10.995 135.501 10.995 C 135.373 10.995 134.701 11.038 133.96 11.038 C 133.773 11.038 133.645 11.023 133.645 10.895 C 133.645 10.809 133.731 10.781 133.874 10.781 C 134.059 10.781 134.316 10.767 134.516 10.709 C 134.887 10.595 134.944 10.181 134.958 8.939 L 135.087 0.486 C 135.087 0.2 135.13 0 135.272 0 C 135.43 0 135.558 0.186 135.802 0.443 C 135.972 0.629 138.142 2.956 140.228 5.026 C 141.198 5.998 143.126 8.053 143.369 8.282 L 143.44 8.282 L 143.297 1.871 C 143.283 1 143.154 0.728 142.812 0.586 C 142.597 0.5 142.255 0.5 142.055 0.5 C 141.884 0.5 141.827 0.457 141.827 0.372 C 141.827 0.257 141.984 0.243 142.198 0.243 C 142.94 0.243 143.626 0.286 143.926 0.286 C 144.083 0.286 144.626 0.243 145.325 0.243 C 145.511 0.243 145.653 0.257 145.653 0.372 C 145.653 0.457 145.567 0.5 145.396 0.5 C 145.254 0.5 145.138 0.5 144.969 0.543 C 144.569 0.657 144.454 0.957 144.439 1.756 L 144.283 10.767 C 144.283 11.08 144.225 11.209 144.096 11.209 C 143.94 11.209 143.768 11.052 143.611 10.895 C 142.712 10.038 140.884 8.167 139.399 6.697 C 137.844 5.155 136.259 3.371 136.001 3.099 L 135.958 3.099 L 136.116 9.096 Z " fill="rgb(133,137,138)"/></g><clipPath id="_clipPath_W4nwpcLsT4RI81shChGkHAlwPHW8J8wQ"><path d=" M 0 0 L 0 52.46 L 241.396 52.46 L 241.396 0 L 0 0 Z " fill="rgb(255,255,255)"/></clipPath><g clip-path="url(#_clipPath_W4nwpcLsT4RI81shChGkHAlwPHW8J8wQ)"><path d=" M 169.154 8.867 C 169.054 8.867 169.025 8.925 168.997 9.082 C 168.897 9.666 168.725 9.967 168.354 10.138 C 167.983 10.31 167.383 10.31 167.012 10.31 C 165.555 10.31 165.327 10.095 165.299 9.11 C 165.284 8.696 165.299 7.382 165.299 6.897 L 165.299 5.769 C 165.299 5.683 165.312 5.626 165.385 5.626 C 165.727 5.626 167.14 5.64 167.412 5.669 C 167.94 5.726 168.14 5.94 168.212 6.226 C 168.255 6.412 168.255 6.597 168.268 6.74 C 168.268 6.812 168.297 6.869 168.396 6.869 C 168.525 6.869 168.525 6.711 168.525 6.597 C 168.525 6.497 168.554 5.926 168.583 5.64 C 168.625 4.912 168.697 4.684 168.697 4.598 C 168.697 4.513 168.654 4.484 168.596 4.484 C 168.525 4.484 168.469 4.555 168.368 4.669 C 168.24 4.812 168.026 4.855 167.683 4.884 C 167.354 4.912 165.713 4.912 165.398 4.912 C 165.312 4.912 165.299 4.855 165.299 4.755 L 165.299 1.142 C 165.299 1.043 165.327 1 165.398 1 C 165.684 1 167.183 1.028 167.427 1.057 C 168.14 1.142 168.282 1.314 168.383 1.571 C 168.454 1.742 168.469 1.985 168.469 2.085 C 168.469 2.213 168.497 2.285 168.596 2.285 C 168.697 2.285 168.725 2.199 168.739 2.128 C 168.768 1.957 168.797 1.328 168.811 1.185 C 168.853 0.529 168.926 0.357 168.926 0.257 C 168.926 0.186 168.911 0.129 168.84 0.129 C 168.768 0.129 168.682 0.172 168.611 0.186 C 168.497 0.214 168.268 0.243 167.998 0.271 C 167.726 0.286 164.885 0.286 164.428 0.286 C 164.227 0.286 163.899 0.271 163.528 0.257 C 163.172 0.257 162.757 0.243 162.372 0.243 C 162.307 0.243 162.152 0.243 162.096 0.243 C 161.667 0.243 160.996 0.286 160.754 0.286 C 160.568 0.286 159.968 0.243 159.254 0.243 C 158.983 0.243 158.855 0.271 158.855 0.386 C 158.855 0.486 158.97 0.5 159.097 0.5 C 159.282 0.5 159.497 0.515 159.669 0.571 C 159.797 0.614 159.853 0.728 159.853 0.843 C 159.853 0.972 159.797 1.185 159.725 1.371 C 159.383 2.313 157.526 6.911 156.913 8.482 L 156.855 8.482 L 154.4 1.999 C 154.2 1.485 154.071 1.086 154.071 0.9 C 154.071 0.771 154.114 0.671 154.214 0.6 C 154.328 0.515 154.543 0.5 154.77 0.5 C 154.899 0.5 154.985 0.472 154.985 0.372 C 154.985 0.271 154.827 0.243 154.657 0.243 C 153.943 0.243 153.258 0.286 152.9 0.286 C 152.4 0.286 151.587 0.243 150.829 0.243 C 150.739 0.243 150.516 0.243 150.456 0.243 C 149.914 0.243 149.071 0.286 148.715 0.286 C 148.3 0.286 147.4 0.243 146.857 0.243 C 146.629 0.243 146.515 0.271 146.515 0.357 C 146.515 0.472 146.6 0.5 146.744 0.5 C 146.915 0.5 147.101 0.515 147.258 0.557 C 147.572 0.629 147.715 0.872 147.743 1.356 C 147.771 1.813 147.771 2.213 147.771 4.384 L 147.771 6.897 C 147.771 8.282 147.771 9.41 147.701 10.009 C 147.658 10.424 147.572 10.667 147.286 10.723 C 147.158 10.752 146.987 10.781 146.772 10.781 C 146.6 10.781 146.544 10.823 146.544 10.895 C 146.544 10.995 146.644 11.038 146.829 11.038 C 147.4 11.038 148.3 10.995 148.629 10.995 C 149.013 10.995 149.914 11.038 150.856 11.038 C 151.013 11.038 151.128 10.995 151.128 10.895 C 151.128 10.823 151.055 10.781 150.899 10.781 C 150.684 10.781 150.37 10.752 150.172 10.723 C 149.743 10.667 149.642 10.41 149.599 10.023 C 149.543 9.41 149.543 8.282 149.543 6.897 L 149.543 4.384 C 149.543 2.213 149.543 1.813 149.571 1.356 C 149.599 0.857 149.715 0.614 150.099 0.543 C 150.27 0.515 150.385 0.5 150.528 0.5 C 150.554 0.5 150.61 0.5 150.63 0.5 C 150.744 0.5 150.972 0.5 151.186 0.557 C 151.701 0.7 151.943 0.857 152.272 1.642 L 155.871 10.366 C 156.141 11.038 156.227 11.238 156.413 11.238 C 156.613 11.238 156.699 11.009 157.069 10.181 C 157.384 9.467 158.055 7.911 158.97 5.826 C 159.739 4.07 160.126 3.298 160.682 1.957 C 161.068 1.043 161.282 0.8 161.467 0.671 C 161.724 0.5 162.024 0.5 162.168 0.5 C 162.195 0.5 162.27 0.5 162.3 0.5 C 162.5 0.5 162.743 0.515 162.857 0.543 C 163.328 0.643 163.442 0.872 163.471 1.356 C 163.499 1.813 163.499 2.213 163.499 4.384 L 163.499 6.897 C 163.499 8.21 163.499 9.338 163.429 9.937 C 163.371 10.352 163.3 10.667 163.013 10.723 C 162.886 10.752 162.715 10.781 162.5 10.781 C 162.328 10.781 162.271 10.823 162.271 10.895 C 162.271 10.995 162.372 11.038 162.556 11.038 C 162.843 11.038 163.214 11.023 163.543 11.009 C 163.886 11.009 164.199 10.995 164.356 10.995 C 164.785 10.995 165.227 11.009 165.842 11.038 C 166.455 11.052 167.24 11.08 168.312 11.08 C 168.853 11.08 168.982 11.08 169.082 10.709 C 169.154 10.424 169.268 9.453 169.268 9.124 C 169.268 8.981 169.268 8.867 169.154 8.867 Z " fill="rgb(133,137,138)"/></g><clipPath id="_clipPath_yjtQFuS7v3Mg3Uv8FFLtSB07HYExlP0D"><path d=" M 0 0 L 0 52.46 L 241.396 52.46 L 241.396 0 L 0 0 Z " fill="rgb(255,255,255)"/></clipPath><g clip-path="url(#_clipPath_yjtQFuS7v3Mg3Uv8FFLtSB07HYExlP0D)"><path d=" M 173.427 5.512 C 173.427 5.669 173.456 5.726 173.555 5.769 C 173.855 5.869 174.284 5.912 174.641 5.912 C 175.213 5.912 175.397 5.854 175.655 5.669 C 176.083 5.355 176.497 4.698 176.497 3.527 C 176.497 1.499 175.155 0.914 174.312 0.914 C 173.956 0.914 173.699 0.929 173.555 0.972 C 173.456 1 173.427 1.057 173.427 1.171 L 173.427 5.512 Z  M 171.742 4.384 C 171.742 2.213 171.742 1.813 171.714 1.356 C 171.685 0.872 171.571 0.643 171.1 0.543 C 170.986 0.515 170.743 0.5 170.543 0.5 C 170.387 0.5 170.301 0.472 170.301 0.372 C 170.301 0.271 170.4 0.243 170.615 0.243 C 171.371 0.243 172.27 0.286 172.571 0.286 C 173.056 0.286 174.141 0.243 174.584 0.243 C 175.483 0.243 176.44 0.329 177.211 0.857 C 177.611 1.128 178.182 1.856 178.182 2.813 C 178.182 3.87 177.739 4.841 176.297 6.012 C 177.569 7.611 178.554 8.881 179.396 9.767 C 180.195 10.595 180.781 10.695 180.996 10.737 C 181.152 10.767 181.281 10.781 181.395 10.781 C 181.51 10.781 181.566 10.823 181.566 10.895 C 181.566 11.009 181.467 11.038 181.295 11.038 L 179.938 11.038 C 179.138 11.038 178.782 10.966 178.411 10.767 C 177.797 10.438 177.255 9.767 176.455 8.667 C 175.884 7.881 175.226 6.911 175.041 6.697 C 174.97 6.611 174.884 6.597 174.784 6.597 L 173.541 6.569 C 173.471 6.569 173.427 6.597 173.427 6.683 L 173.427 6.883 C 173.427 8.21 173.427 9.338 173.499 9.937 C 173.541 10.352 173.627 10.667 174.055 10.723 C 174.27 10.752 174.584 10.781 174.756 10.781 C 174.87 10.781 174.927 10.823 174.927 10.895 C 174.927 10.995 174.827 11.038 174.641 11.038 C 173.813 11.038 172.756 10.995 172.543 10.995 C 172.27 10.995 171.371 11.038 170.8 11.038 C 170.615 11.038 170.514 10.995 170.514 10.895 C 170.514 10.823 170.571 10.781 170.743 10.781 C 170.958 10.781 171.128 10.752 171.257 10.723 C 171.543 10.667 171.613 10.352 171.671 9.937 C 171.742 9.338 171.742 8.21 171.742 6.897 L 171.742 4.384 Z " fill="rgb(133,137,138)"/></g><clipPath id="_clipPath_DyYoghK9c40xNu2hql6oZyb6hwNH3cvA"><path d=" M 0 0 L 0 52.46 L 241.396 52.46 L 241.396 0 L 0 0 Z " fill="rgb(255,255,255)"/></clipPath><g clip-path="url(#_clipPath_DyYoghK9c40xNu2hql6oZyb6hwNH3cvA)"><path d=" M 182.028 10.867 C 181.8 10.767 181.756 10.695 181.756 10.38 C 181.756 9.595 181.813 8.739 181.828 8.51 C 181.842 8.296 181.885 8.139 181.999 8.139 C 182.128 8.139 182.142 8.268 182.142 8.382 C 182.142 8.567 182.199 8.867 182.27 9.11 C 182.585 10.166 183.427 10.552 184.312 10.552 C 185.597 10.552 186.225 9.681 186.225 8.925 C 186.225 8.224 186.012 7.554 184.826 6.64 L 184.169 6.126 C 182.598 4.898 182.056 3.898 182.056 2.742 C 182.056 1.171 183.369 0.043 185.354 0.043 C 186.283 0.043 186.882 0.186 187.253 0.286 C 187.383 0.314 187.453 0.357 187.453 0.457 C 187.453 0.643 187.396 1.057 187.396 2.17 C 187.396 2.485 187.353 2.599 187.239 2.599 C 187.138 2.599 187.096 2.513 187.096 2.342 C 187.096 2.213 187.024 1.771 186.725 1.399 C 186.512 1.128 186.096 0.7 185.169 0.7 C 184.112 0.7 183.47 1.314 183.47 2.17 C 183.47 2.828 183.798 3.328 184.982 4.227 L 185.383 4.527 C 187.096 5.854 187.724 6.812 187.724 8.167 C 187.724 8.996 187.411 9.981 186.383 10.652 C 185.668 11.109 184.869 11.238 184.112 11.238 C 183.284 11.238 182.641 11.138 182.028 10.867 Z " fill="rgb(133,137,138)"/></g><clipPath id="_clipPath_JNs3amXiCGwMXcxXRW778VF2FtMjoY7I"><path d=" M 0 0 L 0 52.46 L 241.396 52.46 L 241.396 0 L 0 0 Z " fill="rgb(255,255,255)"/></clipPath><g clip-path="url(#_clipPath_JNs3amXiCGwMXcxXRW778VF2FtMjoY7I)"><path d=" M 190.512 4.384 C 190.512 2.213 190.512 1.813 190.484 1.356 C 190.456 0.872 190.313 0.629 189.999 0.557 C 189.842 0.515 189.656 0.5 189.485 0.5 C 189.342 0.5 189.257 0.472 189.257 0.357 C 189.257 0.271 189.37 0.243 189.598 0.243 C 190.141 0.243 191.041 0.286 191.456 0.286 C 191.812 0.286 192.654 0.243 193.197 0.243 C 193.384 0.243 193.498 0.271 193.498 0.357 C 193.498 0.472 193.412 0.5 193.269 0.5 C 193.126 0.5 193.012 0.515 192.841 0.543 C 192.455 0.614 192.34 0.857 192.311 1.356 C 192.283 1.813 192.283 2.213 192.283 4.384 L 192.283 6.897 C 192.283 8.282 192.283 9.41 192.34 10.023 C 192.384 10.41 192.483 10.667 192.912 10.723 C 193.111 10.752 193.426 10.781 193.64 10.781 C 193.797 10.781 193.868 10.823 193.868 10.895 C 193.868 10.995 193.755 11.038 193.597 11.038 C 192.654 11.038 191.755 10.995 191.37 10.995 C 191.041 10.995 190.141 11.038 189.57 11.038 C 189.386 11.038 189.285 10.995 189.285 10.895 C 189.285 10.823 189.342 10.781 189.513 10.781 C 189.727 10.781 189.898 10.752 190.027 10.723 C 190.313 10.667 190.399 10.424 190.441 10.009 C 190.512 9.41 190.512 8.282 190.512 6.897 L 190.512 4.384 Z " fill="rgb(133,137,138)"/></g><clipPath id="_clipPath_4cCatMg1IIivRL6yCE8LmsyaPAkadGSP"><path d=" M 0 0 L 0 52.46 L 241.396 52.46 L 241.396 0 L 0 0 Z " fill="rgb(255,255,255)"/></clipPath><g clip-path="url(#_clipPath_4cCatMg1IIivRL6yCE8LmsyaPAkadGSP)"><path d=" M 198.382 1.043 L 196.254 1.1 C 195.427 1.128 195.084 1.2 194.869 1.514 C 194.726 1.728 194.655 1.899 194.627 2.014 C 194.598 2.128 194.555 2.185 194.47 2.185 C 194.37 2.185 194.342 2.114 194.342 1.957 C 194.342 1.728 194.612 0.429 194.64 0.314 C 194.684 0.129 194.726 0.043 194.812 0.043 C 194.927 0.043 195.069 0.186 195.427 0.214 C 195.841 0.257 196.384 0.286 196.854 0.286 L 202.509 0.286 C 202.966 0.286 203.28 0.243 203.494 0.214 C 203.709 0.172 203.823 0.143 203.88 0.143 C 203.979 0.143 203.994 0.228 203.994 0.443 C 203.994 0.743 203.951 1.728 203.951 2.099 C 203.937 2.242 203.909 2.328 203.823 2.328 C 203.709 2.328 203.68 2.256 203.665 2.042 L 203.651 1.885 C 203.623 1.514 203.237 1.114 201.966 1.086 L 200.168 1.043 L 200.168 6.897 C 200.168 8.21 200.168 9.338 200.238 9.953 C 200.282 10.352 200.367 10.667 200.795 10.723 C 200.995 10.752 201.309 10.781 201.524 10.781 C 201.68 10.781 201.753 10.823 201.753 10.895 C 201.753 10.995 201.638 11.038 201.48 11.038 C 200.538 11.038 199.638 10.995 199.239 10.995 C 198.911 10.995 198.012 11.038 197.44 11.038 C 197.254 11.038 197.154 10.995 197.154 10.895 C 197.154 10.823 197.212 10.781 197.383 10.781 C 197.596 10.781 197.768 10.752 197.897 10.723 C 198.182 10.667 198.268 10.352 198.31 9.937 C 198.382 9.338 198.382 8.21 198.382 6.897 L 198.382 1.043 Z " fill="rgb(133,137,138)"/></g><clipPath id="_clipPath_XTAdc3MZhEO9yeBR1jd4wCjJnU9AbbvT"><path d=" M 0 0 L 0 52.46 L 241.396 52.46 L 241.396 0 L 0 0 Z " fill="rgb(255,255,255)"/></clipPath><g clip-path="url(#_clipPath_XTAdc3MZhEO9yeBR1jd4wCjJnU9AbbvT)"><path d=" M 209.297 7.34 C 209.297 6.569 209.153 6.254 208.969 5.84 C 208.868 5.612 206.955 2.471 206.455 1.728 C 206.098 1.2 205.74 0.843 205.47 0.686 C 205.284 0.586 205.041 0.5 204.87 0.5 C 204.756 0.5 204.656 0.472 204.656 0.372 C 204.656 0.286 204.756 0.243 204.927 0.243 C 205.184 0.243 206.255 0.286 206.726 0.286 C 207.026 0.286 207.612 0.243 208.254 0.243 C 208.397 0.243 208.468 0.286 208.468 0.372 C 208.468 0.457 208.368 0.472 208.154 0.529 C 208.025 0.557 207.954 0.671 207.954 0.786 C 207.954 0.9 208.025 1.071 208.125 1.271 C 208.325 1.699 210.324 5.141 210.553 5.541 C 210.696 5.198 212.495 2.056 212.694 1.614 C 212.837 1.299 212.894 1.057 212.894 0.872 C 212.894 0.728 212.837 0.571 212.595 0.515 C 212.466 0.486 212.338 0.457 212.338 0.372 C 212.338 0.271 212.409 0.243 212.58 0.243 C 213.052 0.243 213.509 0.286 213.923 0.286 C 214.237 0.286 215.179 0.243 215.45 0.243 C 215.608 0.243 215.708 0.271 215.708 0.357 C 215.708 0.457 215.594 0.5 215.436 0.5 C 215.294 0.5 215.022 0.557 214.808 0.671 C 214.508 0.814 214.351 0.986 214.037 1.371 C 213.566 1.942 211.566 5.298 211.309 5.912 C 211.096 6.426 211.096 6.869 211.096 7.34 L 211.096 8.51 C 211.096 8.739 211.096 9.338 211.138 9.937 C 211.167 10.352 211.296 10.667 211.724 10.723 C 211.923 10.752 212.237 10.781 212.437 10.781 C 212.595 10.781 212.666 10.823 212.666 10.895 C 212.666 10.995 212.552 11.038 212.366 11.038 C 211.467 11.038 210.567 10.995 210.181 10.995 C 209.824 10.995 208.925 11.038 208.397 11.038 C 208.197 11.038 208.083 11.009 208.083 10.895 C 208.083 10.823 208.154 10.781 208.311 10.781 C 208.512 10.781 208.682 10.752 208.81 10.723 C 209.096 10.667 209.225 10.352 209.254 9.937 C 209.297 9.338 209.297 8.739 209.297 8.51 L 209.297 7.34 Z " fill="rgb(133,137,138)"/></g><clipPath id="_clipPath_l2zGDqdqM7tLj1Qa09ZyTy6aMnVobxF6"><path d=" M 0 0 L 0 52.46 L 241.396 52.46 L 241.396 0 L 0 0 Z " fill="rgb(255,255,255)"/></clipPath><g clip-path="url(#_clipPath_l2zGDqdqM7tLj1Qa09ZyTy6aMnVobxF6)"><path d=" M 229.665 5.912 C 229.665 2.713 227.822 0.728 225.48 0.728 C 223.838 0.728 221.968 1.642 221.968 5.198 C 221.968 8.167 223.609 10.524 226.35 10.524 C 227.35 10.524 229.665 10.038 229.665 5.912 Z  M 219.997 5.64 C 219.997 3.199 221.61 0.043 225.893 0.043 C 229.45 0.043 231.663 2.114 231.663 5.384 C 231.663 8.653 229.379 11.238 225.751 11.238 C 221.653 11.238 219.997 8.167 219.997 5.64 Z " fill="rgb(133,137,138)"/></g><clipPath id="_clipPath_VF6oP78zckPPc60LJPsmqMXSjIxI2Brx"><path d=" M 0 0 L 0 52.46 L 241.396 52.46 L 241.396 0 L 0 0 Z " fill="rgb(255,255,255)"/></clipPath><g clip-path="url(#_clipPath_VF6oP78zckPPc60LJPsmqMXSjIxI2Brx)"><path d=" M 236.054 6.897 C 236.054 8.268 236.054 9.338 236.126 9.937 C 236.169 10.352 236.255 10.667 236.683 10.723 C 236.883 10.752 237.197 10.781 237.397 10.781 C 237.583 10.781 237.639 10.823 237.639 10.895 C 237.639 10.995 237.54 11.038 237.325 11.038 C 236.426 11.038 235.527 10.995 235.155 10.995 C 234.784 10.995 233.884 11.038 233.343 11.038 C 233.142 11.038 233.042 11.009 233.042 10.895 C 233.042 10.823 233.098 10.781 233.257 10.781 C 233.471 10.781 233.641 10.752 233.769 10.723 C 234.055 10.667 234.127 10.352 234.184 9.937 C 234.256 9.338 234.256 8.268 234.256 6.897 L 234.256 4.384 C 234.256 2.213 234.256 1.813 234.226 1.356 C 234.198 0.872 234.084 0.643 233.613 0.543 C 233.499 0.515 233.257 0.5 233.056 0.5 C 232.914 0.5 232.813 0.472 232.813 0.386 C 232.813 0.271 232.928 0.243 233.142 0.243 C 233.512 0.243 233.928 0.257 234.299 0.257 C 234.67 0.271 234.998 0.286 235.198 0.286 C 235.74 0.286 238.639 0.286 238.968 0.271 C 239.239 0.257 239.411 0.257 239.554 0.214 C 239.639 0.186 239.71 0.129 239.782 0.129 C 239.838 0.129 239.882 0.186 239.882 0.257 C 239.882 0.357 239.81 0.529 239.767 0.9 C 239.754 1.043 239.724 1.885 239.696 2.056 C 239.681 2.17 239.653 2.256 239.554 2.256 C 239.453 2.256 239.425 2.185 239.411 2.028 C 239.411 1.914 239.411 1.685 239.325 1.485 C 239.224 1.285 238.925 1.071 238.383 1.057 L 236.182 1.014 C 236.097 1.014 236.054 1.057 236.054 1.214 L 236.054 4.784 C 236.054 4.87 236.068 4.912 236.154 4.912 L 237.982 4.898 C 238.224 4.898 238.425 4.898 238.625 4.884 C 238.896 4.87 239.096 4.812 239.239 4.627 C 239.31 4.541 239.339 4.484 239.425 4.484 C 239.481 4.484 239.511 4.527 239.511 4.612 C 239.511 4.698 239.439 5.055 239.395 5.498 C 239.367 5.783 239.339 6.44 239.339 6.54 C 239.339 6.668 239.339 6.812 239.196 6.812 C 239.11 6.812 239.082 6.711 239.082 6.611 C 239.082 6.511 239.054 6.34 238.996 6.168 C 238.925 5.969 238.71 5.711 238.268 5.655 C 237.911 5.612 236.397 5.612 236.154 5.612 C 236.084 5.612 236.054 5.64 236.054 5.74 L 236.054 6.897 Z " fill="rgb(133,137,138)"/></g><clipPath id="_clipPath_igkBv2OJNDqDpydH62lis6QKNTV4t610"><path d=" M 0 0 L 0 52.46 L 241.396 52.46 L 241.396 0 L 0 0 Z " fill="rgb(255,255,255)"/></clipPath><g clip-path="url(#_clipPath_igkBv2OJNDqDpydH62lis6QKNTV4t610)"><path d=" M 31.101 6.37 C 29.244 8.075 20.463 16.896 18.474 19.003 L 35.242 37.036 L 42.045 44.413 C 44.409 46.679 47.151 49.064 50.09 50.209 C 51.842 50.908 53.268 51.34 53.977 51.34 C 54.383 51.34 54.738 51.461 54.738 51.808 C 54.738 52.218 54.442 52.393 53.33 52.393 L 48.241 52.393 C 46.491 52.393 45.43 52.393 44.207 52.279 C 41.053 51.99 39.472 50.7 36.957 48.477 L 13.974 23.096 L 13.332 22.22 L 13.035 22.22 L 13.035 27.543 C 13.035 32.919 13.035 37.541 13.216 40.055 C 13.332 41.691 13.858 42.976 15.316 43.214 C 16.136 43.33 17.425 43.446 18.186 43.446 C 18.651 43.446 18.944 43.619 18.944 43.913 C 18.944 44.323 18.474 44.498 17.834 44.498 C 14.557 44.498 10.873 44.323 9.408 44.323 C 8.065 44.323 4.386 44.498 2.046 44.498 C 1.284 44.498 0.876 44.323 0.876 43.913 C 0.876 43.619 1.108 43.446 1.811 43.446 C 2.688 43.446 3.389 43.33 3.915 43.214 C 5.084 42.976 5.374 41.691 5.612 39.994 C 5.905 37.541 5.905 32.919 5.905 27.543 L 5.905 17.249 C 5.905 8.36 5.905 6.721 5.787 4.854 C 5.674 2.868 5.204 1.931 3.273 1.518 C 2.804 1.404 1.811 1.342 0.99 1.342 C 0.346 1.342 0 1.229 0 0.817 C 0 0.411 0.411 0.291 1.284 0.291 C 4.386 0.291 8.065 0.469 9.47 0.469 C 10.873 0.469 14.557 0.291 16.547 0.291 C 17.366 0.291 17.77 0.411 17.77 0.817 C 17.77 1.229 17.425 1.342 16.951 1.342 C 16.366 1.342 16.015 1.404 15.316 1.518 C 13.739 1.812 13.273 2.806 13.154 4.854 C 13.035 6.721 13.035 8.36 13.035 17.249 L 13.035 19.823 L 13.332 19.823 C 15.316 17.661 23.852 8.944 25.551 6.957 C 27.19 5.027 28.477 3.568 28.477 2.574 C 28.477 1.931 28.241 1.518 27.653 1.404 C 27.128 1.284 26.898 1.168 26.898 0.817 C 26.898 0.411 27.19 0.291 27.833 0.291 C 29.06 0.291 32.276 0.469 33.856 0.469 L 45.065 0.465 C 46.462 0.465 50.139 0.291 52.241 0.291 C 53.114 0.291 53.526 0.411 53.526 0.818 C 53.526 1.223 53.171 1.339 52.586 1.339 C 51.944 1.339 51.595 1.399 50.898 1.516 C 49.323 1.807 48.855 2.797 48.737 4.84 C 48.621 6.705 48.621 8.338 48.621 17.203 L 48.621 25.37 C 48.621 33.826 50.317 37.383 53.171 39.718 C 55.795 41.878 58.481 42.11 60.461 42.11 C 63.028 42.11 66.174 41.295 68.511 38.96 C 71.721 35.753 71.891 30.505 71.891 24.499 L 71.891 17.203 C 71.891 8.338 71.891 6.705 71.78 4.84 C 71.66 2.855 71.195 1.926 69.268 1.516 C 68.801 1.399 67.813 1.339 67.17 1.339 C 66.528 1.339 66.174 1.223 66.174 0.818 C 66.174 0.411 66.59 0.291 67.399 0.291 C 70.379 0.291 74.049 0.465 74.112 0.465 C 74.811 0.465 78.481 0.291 80.758 0.291 C 81.577 0.291 81.985 0.411 81.985 0.818 C 81.985 1.223 81.632 1.339 80.936 1.339 C 80.29 1.339 79.943 1.399 79.244 1.516 C 77.666 1.807 77.203 2.797 77.084 4.84 C 76.966 6.705 76.966 8.338 76.966 17.203 L 76.966 23.447 C 76.966 29.922 76.327 36.806 71.426 41 C 67.286 44.56 63.086 45.205 59.294 45.205 C 56.2 45.205 50.605 45.027 46.347 41.176 C 43.374 38.495 41.157 34.179 41.157 25.719 L 41.157 17.203 C 41.157 8.338 41.157 6.705 41.037 4.84 C 40.919 2.855 40.348 1.516 38.53 1.516 C 36.715 1.516 34.119 3.605 31.101 6.37 Z " fill="rgb(0,81,186)"/></g><clipPath id="_clipPath_xcadpXVXBZYm1hHxlMkcElHd6sYEbcpx"><path d=" M 0 0 L 0 52.46 L 241.396 52.46 L 241.396 0 L 0 0 Z " fill="rgb(255,255,255)"/></clipPath><g clip-path="url(#_clipPath_xcadpXVXBZYm1hHxlMkcElHd6sYEbcpx)"><path d=" M 175.908 44.144 C 175.275 43.868 175.158 43.67 175.158 42.8 C 175.158 40.628 175.315 38.258 175.354 37.626 C 175.394 37.034 175.512 36.599 175.83 36.599 C 176.184 36.599 176.224 36.955 176.224 37.27 C 176.224 37.784 176.383 38.614 176.579 39.285 C 177.449 42.209 179.779 43.275 182.228 43.275 C 185.785 43.275 187.522 40.866 187.522 38.771 C 187.522 36.835 186.929 34.979 183.651 32.451 L 181.834 31.029 C 177.488 27.631 175.987 24.866 175.987 21.666 C 175.987 17.32 179.622 14.2 185.113 14.2 C 187.68 14.2 189.34 14.595 190.367 14.871 C 190.722 14.95 190.921 15.068 190.921 15.345 C 190.921 15.859 190.762 17.004 190.762 20.085 C 190.762 20.955 190.643 21.271 190.328 21.271 C 190.051 21.271 189.932 21.034 189.932 20.56 C 189.932 20.204 189.735 18.98 188.905 17.952 C 188.312 17.202 187.168 16.017 184.599 16.017 C 181.676 16.017 179.898 17.715 179.898 20.085 C 179.898 21.903 180.807 23.286 184.086 25.774 L 185.192 26.604 C 189.932 30.278 191.671 32.925 191.671 36.678 C 191.671 38.969 190.802 41.695 187.958 43.551 C 185.982 44.816 183.769 45.171 181.676 45.171 C 179.385 45.171 177.607 44.895 175.908 44.144 Z " fill="rgb(133,137,138)"/></g><clipPath id="_clipPath_tFbqYyrcgsNkC9SPwnUVSQM3dz207DC8"><path d=" M 0 0 L 0 52.46 L 241.396 52.46 L 241.396 0 L 0 0 Z " fill="rgb(255,255,255)"/></clipPath><g clip-path="url(#_clipPath_tFbqYyrcgsNkC9SPwnUVSQM3dz207DC8)"><path d=" M 209.663 32.332 C 209.861 32.332 209.9 32.213 209.861 32.095 L 206.305 22.337 C 206.266 22.18 206.226 21.982 206.108 21.982 C 205.989 21.982 205.91 22.18 205.871 22.337 L 202.236 32.055 C 202.197 32.213 202.236 32.332 202.394 32.332 L 209.663 32.332 Z  M 201.604 34.307 C 201.407 34.307 201.328 34.386 201.249 34.624 L 199.116 40.272 C 198.721 41.26 198.523 42.209 198.523 42.682 C 198.523 43.394 198.879 43.907 200.103 43.907 L 200.696 43.907 C 201.17 43.907 201.289 43.986 201.289 44.223 C 201.289 44.54 201.052 44.619 200.617 44.619 C 199.353 44.619 197.654 44.5 196.429 44.5 C 195.995 44.5 193.822 44.619 191.768 44.619 C 191.255 44.619 191.017 44.54 191.017 44.223 C 191.017 43.986 191.176 43.907 191.491 43.907 C 191.847 43.907 192.4 43.868 192.716 43.828 C 194.533 43.591 195.284 42.248 196.074 40.272 L 205.989 15.464 C 206.464 14.318 206.701 13.883 207.096 13.883 C 207.451 13.883 207.688 14.239 208.084 15.147 C 209.032 17.32 215.352 33.438 217.881 39.443 C 219.382 42.999 220.527 43.551 221.357 43.749 C 221.949 43.868 222.542 43.907 223.015 43.907 C 223.333 43.907 223.53 43.947 223.53 44.223 C 223.53 44.54 223.174 44.619 221.712 44.619 C 220.291 44.619 217.406 44.619 214.246 44.54 C 213.535 44.5 213.061 44.5 213.061 44.223 C 213.061 43.986 213.22 43.907 213.614 43.868 C 213.89 43.789 214.167 43.433 213.97 42.959 L 210.809 34.584 C 210.73 34.386 210.612 34.307 210.414 34.307 L 201.604 34.307 Z " fill="rgb(133,137,138)"/></g><clipPath id="_clipPath_zImIYxewMBCfPb6dDiiWFghTdWIlRxgD"><path d=" M 0 0 L 0 52.46 L 241.396 52.46 L 241.396 0 L 0 0 Z " fill="rgb(255,255,255)"/></clipPath><g clip-path="url(#_clipPath_zImIYxewMBCfPb6dDiiWFghTdWIlRxgD)"><path d=" M 224.661 44.144 C 224.029 43.868 223.91 43.67 223.91 42.8 C 223.91 40.628 224.068 38.258 224.108 37.626 C 224.147 37.034 224.266 36.599 224.582 36.599 C 224.938 36.599 224.977 36.955 224.977 37.27 C 224.977 37.784 225.135 38.614 225.333 39.285 C 226.202 42.209 228.533 43.275 230.982 43.275 C 234.538 43.275 236.276 40.866 236.276 38.771 C 236.276 36.835 235.683 34.979 232.404 32.451 L 230.587 31.029 C 226.242 27.631 224.74 24.866 224.74 21.666 C 224.74 17.32 228.375 14.2 233.866 14.2 C 236.434 14.2 238.093 14.595 239.12 14.871 C 239.475 14.95 239.673 15.068 239.673 15.345 C 239.673 15.859 239.515 17.004 239.515 20.085 C 239.515 20.955 239.396 21.271 239.08 21.271 C 238.804 21.271 238.685 21.034 238.685 20.56 C 238.685 20.204 238.488 18.98 237.659 17.952 C 237.066 17.202 235.92 16.017 233.352 16.017 C 230.429 16.017 228.651 17.715 228.651 20.085 C 228.651 21.903 229.559 23.286 232.839 25.774 L 233.944 26.604 C 238.685 30.278 240.424 32.925 240.424 36.678 C 240.424 38.969 239.554 41.695 236.71 43.551 C 234.735 44.816 232.523 45.171 230.429 45.171 C 228.137 45.171 226.359 44.895 224.661 44.144 Z " fill="rgb(133,137,138)"/></g><clipPath id="_clipPath_YH2agRCmlWOc51ukhYgXmB34kF55X5pT"><path d=" M 0 0 L 0 52.46 L 241.396 52.46 L 241.396 0 L 0 0 Z " fill="rgb(255,255,255)"/></clipPath><g clip-path="url(#_clipPath_YH2agRCmlWOc51ukhYgXmB34kF55X5pT)"><path d=" M 129.946 32.424 L 122.774 32.424 C 122.613 32.424 122.579 32.301 122.613 32.145 L 126.206 22.557 C 126.243 22.403 126.323 22.214 126.443 22.214 C 126.554 22.214 126.596 22.403 126.634 22.557 L 130.139 32.185 C 130.179 32.301 130.139 32.424 129.946 32.424 Z  M 173.626 15.074 C 171.725 15.074 170.23 15.187 169.816 15.187 C 168.999 15.187 167.117 15.074 165.096 15.074 C 164.503 15.074 164.07 15.112 164.07 15.424 C 164.07 15.667 164.229 15.783 164.693 15.783 C 165.247 15.783 166.191 15.783 166.767 16.013 C 167.696 16.396 168.053 17.144 168.098 19.518 L 168.489 37.03 L 168.291 37.03 C 167.62 36.397 162.368 30.781 159.721 28.136 C 154.028 22.482 148.098 16.131 147.633 15.626 C 146.966 14.918 146.605 14.416 146.176 14.416 C 145.792 14.416 145.673 14.957 145.673 15.743 L 145.33 38.819 C 145.316 40.143 145.28 41.107 145.185 41.837 C 145.112 42.165 144.643 43.62 142.557 43.62 C 140.489 43.62 139.476 42.137 139.476 42.137 L 139.476 42.153 C 139.052 41.54 138.578 40.677 138.056 39.441 C 135.564 33.513 129.324 17.61 128.375 15.462 C 127.984 14.571 127.757 14.22 127.403 14.22 C 127.026 14.22 126.79 14.652 126.323 15.783 L 116.536 40.261 C 116.194 41.084 115.941 41.789 115.594 42.334 C 115.298 42.778 114.795 43.317 114.078 43.317 C 113.499 43.317 112.83 42.947 112.362 42.614 C 112.176 42.482 111.994 42.332 111.801 42.171 C 111.764 42.143 111.746 42.121 111.746 42.121 L 111.746 42.126 C 110.937 41.462 109.975 40.548 108.557 39.168 C 107.038 37.709 99.505 29.386 98.098 27.548 C 99.425 26.146 105.274 20.304 106.462 19.135 C 108.151 17.493 109.465 16.673 110.687 16.208 C 111.427 15.938 112.391 15.783 112.938 15.783 C 113.329 15.783 113.533 15.704 113.533 15.424 C 113.533 15.148 113.253 15.074 112.853 15.074 C 111.654 15.074 109.506 15.187 108.307 15.187 C 107.245 15.187 105.127 15.074 104.302 15.074 C 103.871 15.074 103.673 15.148 103.673 15.424 C 103.673 15.667 103.834 15.743 104.174 15.821 C 104.578 15.897 104.734 16.167 104.734 16.594 C 104.734 17.261 103.871 18.23 102.795 19.518 C 101.676 20.846 96.006 26.658 94.667 28.098 L 94.473 28.098 L 94.473 26.384 C 94.473 20.457 94.473 19.363 94.55 18.114 C 94.63 16.753 94.94 16.094 96.006 15.897 C 96.473 15.821 96.704 15.783 97.085 15.783 C 97.396 15.783 97.63 15.704 97.63 15.424 C 97.63 15.148 97.358 15.074 96.817 15.074 C 95.498 15.074 93.042 15.187 92.094 15.187 C 91.162 15.187 88.702 15.074 86.65 15.074 C 86.055 15.074 85.78 15.148 85.78 15.424 C 85.78 15.704 86.01 15.783 86.455 15.783 C 87.002 15.783 87.656 15.821 87.963 15.897 C 89.259 16.167 89.571 16.787 89.649 18.114 C 89.726 19.363 89.726 20.457 89.726 26.384 L 89.726 33.239 C 89.726 36.825 89.726 39.906 89.533 41.552 C 89.377 42.672 89.178 43.536 88.39 43.691 C 88.036 43.766 87.581 43.843 87.002 43.843 C 86.532 43.843 86.375 43.961 86.375 44.159 C 86.375 44.428 86.65 44.551 87.154 44.551 C 88.702 44.551 91.162 44.428 92.052 44.428 C 93.042 44.428 95.498 44.551 97.669 44.551 C 98.098 44.551 98.418 44.428 98.418 44.159 C 98.418 43.961 98.221 43.843 97.904 43.843 C 97.396 43.843 96.548 43.766 96.006 43.691 C 95.015 43.536 94.667 42.672 94.586 41.59 C 94.473 39.906 94.473 36.825 94.473 33.239 L 94.473 29.696 L 94.667 29.696 L 95.097 30.278 C 95.926 31.413 103.562 40.42 105.274 41.939 C 106.935 43.423 107.994 44.271 110.092 44.47 C 110.781 44.538 111.387 44.549 112.235 44.551 C 112.247 44.551 112.251 44.551 112.259 44.551 L 121.016 44.551 C 121.434 44.551 121.678 44.47 121.678 44.159 C 121.678 43.919 121.558 43.843 121.096 43.843 L 120.515 43.843 C 119.293 43.843 118.944 43.343 118.944 42.634 C 118.944 42.171 119.141 41.231 119.532 40.261 L 121.637 34.68 C 121.71 34.451 121.788 34.377 121.981 34.377 L 130.681 34.377 C 130.875 34.377 130.987 34.451 131.065 34.644 L 134.185 42.907 C 134.381 43.379 134.107 43.734 133.839 43.804 C 133.445 43.843 133.304 43.919 133.304 44.159 C 133.304 44.428 133.758 44.428 134.454 44.47 C 137.576 44.551 140.426 44.551 141.841 44.551 C 142.04 44.551 142.211 44.549 142.371 44.543 C 142.445 44.549 142.509 44.551 142.592 44.551 L 151.643 44.551 C 152.183 44.551 152.526 44.47 152.526 44.159 C 152.526 43.919 152.304 43.843 151.876 43.843 C 151.258 43.843 150.518 43.804 149.847 43.575 C 149.059 43.306 148.562 42.288 148.492 39.248 L 148.059 22.869 L 148.175 22.869 C 148.866 23.618 153.211 28.49 157.454 32.698 C 161.498 36.712 166.502 41.821 168.955 44.159 C 169.383 44.591 169.853 45.018 170.269 45.018 C 170.623 45.018 170.772 44.668 170.772 43.804 L 171.216 19.209 C 171.253 17.021 171.579 16.208 172.658 15.897 C 173.116 15.783 173.43 15.783 173.816 15.783 C 174.297 15.783 174.536 15.667 174.536 15.424 C 174.536 15.112 174.127 15.074 173.626 15.074 Z " fill="rgb(133,137,138)"/></g><clipPath id="_clipPath_R2xDXpHFASlnBJRG7264n5IIDOca8zZx"><path d=" M 0 0 L 0 52.46 L 241.396 52.46 L 241.396 0 L 0 0 Z " fill="rgb(255,255,255)"/></clipPath><g clip-path="url(#_clipPath_R2xDXpHFASlnBJRG7264n5IIDOca8zZx)"><path d=" M 240.771 52.459 L 85.659 52.459 C 85.314 52.459 85.034 52.18 85.034 51.834 C 85.034 51.49 85.314 51.209 85.659 51.209 L 240.771 51.209 C 241.116 51.209 241.396 51.49 241.396 51.834 C 241.396 52.18 241.116 52.459 240.771 52.459 Z " fill="rgb(0,81,186)"/></g></g></svg>