<?xml version="1.0" standalone="no"?><!-- Generator: Gravit.io --><svg xmlns="http://www.w3.org/2000/svg" xmlns:xlink="http://www.w3.org/1999/xlink" style="isolation:isolate" viewBox="0 0 461.8 128.1" width="461.8" height="128.1"><defs><clipPath id="_clipPath_yybhinJ6gRhqEwlWlpuYTnrkkjKH3uQY"><rect width="461.8" height="128.1"/></clipPath></defs><g clip-path="url(#_clipPath_yybhinJ6gRhqEwlWlpuYTnrkkjKH3uQY)"><path d=" M 0 0 L 29.587 0 L 61.168 109.283 L 93.747 0 L 122.004 0 L 122.651 128.065 L 100.063 128.1 L 100.288 36.5 L 73.051 128.065 L 48.039 128.1 L 20.59 36.5 L 20.272 128.1 L 0.186 128.065 L 0 0 L 0 0 L 0 0 L 0 0 L 0 0 Z  M 274.1 0.038 L 303.457 57.587 L 332.436 0 L 355.494 0.038 L 314.186 76.1 L 314.186 128.1 L 291.186 128.1 L 291.186 76.134 L 250.148 0.038 L 274.1 0.038 L 274.1 0.038 L 274.1 0.038 L 274.1 0.038 L 274.1 0.038 Z  M 389.615 0 L 420.532 0 L 461.754 128.1 L 438.816 128.1 L 426.848 94.6 L 383.261 94.6 L 373.935 128.1 L 372.993 127.864 L 350.72 128.1 L 389.615 0 L 389.615 0 L 389.615 0 L 389.615 0 L 389.615 0 Z  M 199.534 17.243 L 215.991 75.69 L 182.593 75.811 L 199.534 17.243 L 199.534 17.243 L 199.534 17.243 Z  M 183.505 0 L 215.086 0 L 256.295 128.1 L 232.705 128.1 L 221.32 94.575 L 177.232 94.575 L 168.117 128.1 L 144.377 128.1 L 183.505 0 L 183.505 0 L 183.505 0 L 183.505 0 L 183.505 0 Z  M 405.067 17.727 L 421.766 75.569 L 388.731 75.69 L 405.067 17.727 Z " fill-rule="evenodd" fill="rgb(255,255,255)"/></g></svg>