<?xml version="1.0" standalone="no"?><!-- Generator: Gravit.io --><svg xmlns="http://www.w3.org/2000/svg" xmlns:xlink="http://www.w3.org/1999/xlink" style="isolation:isolate" viewBox="0 0 365 421.4" width="365" height="421.4"><defs><clipPath id="_clipPath_UKkmUY7ZYT0BT4d8PwEol0595FcbUm4l"><rect width="365" height="421.4"/></clipPath></defs><g clip-path="url(#_clipPath_UKkmUY7ZYT0BT4d8PwEol0595FcbUm4l)"><g><path d=" M 182.7 0 L 365 105.37 L 365 316.409 L 182.7 421.409 L 0 316.409 L 0 105.409 L 182.7 0 Z " fill="rgb(253,158,12)"/><path d=" M 182.7 14.409 L 352 113.137 Q 352.083 113.283 352 308.809 L 182.7 406.956 L 13 308.792 L 13 113.062 Q 13.017 113.048 182.7 14.409 Z " fill="rgb(50,50,50)"/><path d=" M 182.7 29.409 L 340 119.909 L 340.013 301.909 L 323.225 312.043 Q 320.802 312.884 321.346 311.4 L 323 305.909 L 321.791 305.762 Q 309.963 311.698 290.088 309.323 C 283.595 296.677 278.184 283.143 273 268.52 C 270.527 255.858 268.45 251.704 261.501 246.066 L 228.438 233.256 Q 218.349 231.179 213 226.909 C 204.674 208.452 204.748 201.627 218.299 180.039 C 221.168 178.901 243.449 197.671 255.863 200.045 C 257.371 199.995 307.214 164.022 313.111 151.971 C 311.726 142.475 309.204 141.016 301.5 139.409 C 300.153 139.878 298.373 143.736 297.235 143.637 C 296.525 139.351 295.3 137.3 294 138.909 Q 293.174 146.584 289 150.909 Q 292.487 153.479 291.918 163.717 C 277.748 174.029 267.857 176.997 254.973 180.904 Q 234.2 167.995 216.964 152.02 C 220.03 146.382 220.871 144.255 226.757 142.92 C 240.985 148.836 245.625 155.161 250.5 140.409 C 252.747 139.953 253.192 138.123 253.44 134.512 C 258.027 134.716 259.869 135.65 260 131.909 C 254.973 127.811 253.489 121.183 261.205 118.413 C 263.211 103.337 260.214 93.172 250.521 86.562 Q 243.607 81.396 229.774 82.729 C 218.794 83.174 204.154 95.143 207.641 107.533 C 209.891 134.364 209.248 130.951 194.757 140.62 C 187.413 139.285 176.433 136.713 173.02 135.724 C 164.118 131.866 139.042 124.324 132.5 124.409 C 111.321 143.148 88.861 165.988 84.209 172.202 C 88.554 186.846 85.853 184.685 95.617 187.261 C 97.861 187.428 97.113 186.846 100.662 182.365 C 101.351 182.151 102.211 186.207 103.171 186.021 C 105.252 181.2 106.584 177.141 107.137 173.813 C 105.624 164.864 105.047 165.917 105.371 162.225 L 106 161.909 L 137.5 140.409 L 165 157.909 C 158.101 199.751 157.823 183.018 168 235.909 Q 160.75 243.909 140.4 276.98 C 138.607 274.515 131.513 262.641 130.094 261.969 C 128.526 261.111 102.762 253.979 97.273 246.25 C 91.822 233.629 91.523 235.421 88.909 235.197 C 68.156 246.515 63.818 247.221 61 250.909 L 61 250.909 Q 57.171 258.572 57.843 259.542 C 58.516 260.513 66.207 256.481 71.808 253.344 C 76.886 253.195 87.194 253.25 88.5 253.409 C 89.806 253.568 109.54 269.369 127 288.909 Q 135.77 298.785 135.919 299.009 C 136.068 299.234 139.865 299.808 141.669 299.906 C 143.474 300.003 144.829 299.735 147.494 299.383 Q 149.286 295.91 181.584 270.707 C 186.684 266.727 192.861 260.999 201.859 256.817 C 206.826 255.639 212.24 255.248 218.363 256.593 L 241 262.909 Q 245.509 264.098 249.093 264.098 Q 254.022 273.806 254.769 281.983 Q 273.662 302.743 280.756 315.924 C 282.431 319.528 282.718 323.267 284.042 327.275 C 284.426 328.436 286.152 329.212 286.5 330.409 Q 288.62 330.233 288.896 330.785 Q 289.172 331.337 287.492 332.321 L 182.7 392.409 L 25 301.909 L 25 119.409 L 182.7 29.409 Z " fill="rgb(253,158,12)"/></g></g></svg>