<?xml version="1.0" standalone="no"?><!-- Generator: Gravit.io --><svg xmlns="http://www.w3.org/2000/svg" xmlns:xlink="http://www.w3.org/1999/xlink" style="isolation:isolate" viewBox="0 0 608.5 143.7" width="608.5" height="143.7"><defs><clipPath id="_clipPath_AeIc9CloUzc83PnzUvqGkoJYBC894NOa"><rect width="608.5" height="143.7"/></clipPath></defs><g clip-path="url(#_clipPath_AeIc9CloUzc83PnzUvqGkoJYBC894NOa)"><g><path d=" M 350.945 84.73 L 350.765 139.435 C 321.467 144.502 296.012 144.831 287.04 138.102 C 270.839 128.588 268.378 102.49 282.905 89.866 Q 293.68 80.502 320.413 80.72 L 333.8 83.636 C 333.873 52.681 318.508 49.887 285.953 58.653 C 285.049 54.851 284.409 49.855 284.005 43.637 C 327.354 31.341 353.679 41.522 350.945 84.73 L 350.945 84.73 L 350.945 84.73 L 350.945 84.73 Z  M 561.942 39.334 Q 586.378 39.391 597.328 55.94 Q 608.193 69.908 608.503 95.206 Q 607.014 121.645 590.505 134.137 Q 578.798 145.93 552.505 143.137 Q 536.975 139.666 528.005 129.637 Q 512.076 114.566 515.005 80.637 Q 519.427 59.687 533.385 48.646 Q 543.942 40.334 561.942 39.334 L 561.942 39.334 L 561.942 39.334 L 561.942 39.334 Z  M 66.667 50.236 C 79.391 41.621 83.235 39.766 103.977 39.501 C 124.255 42.682 135.654 47.718 136.005 90.637 L 136.005 141.137 L 118.005 141.137 L 118.005 89.637 C 117.733 70.047 116.899 60.309 104.043 55.803 C 83.897 54.743 79.564 57.029 74.005 61.637 C 78.132 80.19 77.071 82.841 76.939 141.137 L 59.005 141.137 L 59.005 96.637 C 58.914 66.671 56.66 61.37 44.798 55.538 Q 24.321 54.345 18.005 57.637 L 17.505 141.137 L 0.005 141.137 L 0 44.802 C 35.536 36.34 58.317 37.645 66.667 50.236 L 66.667 50.236 L 66.667 50.236 L 66.667 50.236 Z  M 433.505 49.137 C 465.562 30.72 499.706 38.48 502.005 74.021 L 502.005 141.137 L 484.505 141.137 L 484.005 92.848 C 483.9 67.997 482.163 56.888 470.502 55.081 C 449.81 55.081 449.374 55.936 440.005 61.637 C 442.6 68.329 442.945 76.943 443.005 88.637 L 443.005 141.137 L 425.517 141.092 L 425.517 94.77 C 425.98 50.7 414.582 53.484 384.032 56.996 L 383.005 141.137 L 366.005 141.137 L 366.005 44.67 C 398.289 36.428 421.132 37.571 433.505 49.137 L 433.505 49.137 L 433.505 49.137 L 433.505 49.137 Z  M 151.005 41.137 L 169.005 41.137 L 169.005 141.137 L 151.005 141.137 L 151.005 41.137 L 151.005 41.137 L 151.005 41.137 L 151.005 41.137 Z  M 181.005 41.137 L 201.658 41.137 L 225.25 76.479 L 249.505 41.137 L 268.126 41.137 L 235.721 87.877 C 244.071 99.011 262.494 123.642 271.506 141.137 L 251.824 141.092 C 243.532 125.891 234.485 112.205 224.654 100.005 C 214.362 113.774 205.49 127.495 198.005 141.137 L 179.59 141.137 C 188.484 125.08 200.047 107.771 214.249 89.004 L 181.005 41.137 L 181.005 41.137 L 181.005 41.137 L 181.005 41.137 Z  M 148.209 11.92 C 148.209 5.341 153.502 0 160.022 0 C 166.541 0 171.834 5.341 171.834 11.92 C 171.834 18.499 166.541 23.84 160.022 23.84 C 153.502 23.84 148.209 18.499 148.209 11.92 L 148.209 11.92 L 148.209 11.92 Z  M 559.505 54.137 C 562.57 54.103 565.654 54.324 568.653 54.989 C 580.245 57.558 587.045 68.446 589.185 79.52 C 592.119 94.708 589.641 118.766 573.082 125.776 C 570.241 126.979 567.147 127.498 564.082 127.651 C 561.005 127.804 557.529 127.833 554.505 127.137 C 535.272 122.706 532.356 99.71 533.677 83.59 C 534.925 68.365 544.069 56.236 559.505 54.137 L 559.505 54.137 L 559.505 54.137 L 559.505 54.137 Z  M 307.505 95.137 C 315.966 93.575 326.404 92.596 334.005 97.637 L 334.005 97.637 L 334.005 127.374 C 331.345 128.68 322.334 128.929 309.943 128.567 C 303.835 128.719 296.545 125.749 293.005 119.637 L 293.005 119.637 C 288.365 107.299 293.208 99.143 307.505 95.137 L 307.505 95.137 L 307.505 95.137 Z " fill-rule="evenodd" fill="rgb(255,255,255)"/></g></g></svg>